<svg xmlns="http://www.w3.org/2000/svg" width="100" viewBox="0 0 320 72.04"><defs><style>.cls-1{fill: currentColor;}</style></defs><title>Logo_fluicity_noir</title><path class="cls-1" d="M85.57,56V25.65H79V16.58h6.54V14.46C85.57,5.88,91.12.74,98.88.74a16.81,16.81,0,0,1,7.52,1.63l-2.13,7.51a5.8,5.8,0,0,0-3.34-1C98,8.9,96,10.86,96,14.46v2.12h8v9.07H96V56ZM110,56V1.55h10.38V56Z"/><path class="cls-1" d="M156.47,56v-5a18.48,18.48,0,0,1-13.89,6c-8.65,0-12.74-4.73-12.74-12.41v-28h10.38V40.51c0,5.48,2.85,7.27,7.27,7.27a11.6,11.6,0,0,0,9-4.49V16.58h10.37V56Z"/><path class="cls-1" d="M175.26,6.13a6.21,6.21,0,1,1,6.21,6.2A6.25,6.25,0,0,1,175.26,6.13ZM176.32,56V16.58h10.37V56Z"/><path class="cls-1" d="M193.64,36.27c0-12.09,8.74-20.67,20.91-20.67,8.08,0,13,3.51,15.6,7.11l-6.78,6.37A9.57,9.57,0,0,0,215,24.83c-6.29,0-10.7,4.58-10.7,11.44s4.41,11.51,10.7,11.51a10,10,0,0,0,8.33-4.24l6.78,6.29c-2.62,3.67-7.52,7.18-15.6,7.18C202.38,57,193.64,48.44,193.64,36.27Z"/><path class="cls-1" d="M235.05,6.13a6.21,6.21,0,0,1,12.42,0,6.21,6.21,0,0,1-12.42,0ZM236.11,56V16.58h10.38V56Z"/><path class="cls-1" d="M258,46.23V25.65h-6.53V16.58H258V5.8h10.46V16.58h8v9.07h-8v17.8c0,2.45,1.31,4.33,3.59,4.33a5.7,5.7,0,0,0,3.6-1.14l2.2,7.84c-1.55,1.39-4.33,2.53-8.66,2.53C261.92,57,258,53.26,258,46.23Z"/><path class="cls-1" d="M282.92,62.16a8.9,8.9,0,0,0,3.26.65c2.7,0,4.5-.73,5.48-2.86l1.47-3.34-16-40h11.11L298.52,44l10.29-27.45H320L301.46,62.49c-2.94,7.43-8.17,9.39-14.95,9.55a28.18,28.18,0,0,1-5.15-.57Z"/><path class="cls-1" d="M49.22,1.14V16.39c-10.91,0-17.95,5.47-17.95,13.94H15.73c0-15.58,11.71-27.26,28.49-29.19H26.82A26.81,26.81,0,0,0,0,28v28H15.73c0-17.08,14.08-29.47,33.49-29.47V42c-10.9,0-17.95,5.47-17.95,13.93H36.7A26.82,26.82,0,0,0,63.52,29.09V1.14Z"/><path class="cls-1" d="M15.73,55.91h0"/><path class="cls-1" d="M31.27,55.92h0"/></svg>